<svg width="34" height="34" viewBox="0 0 34 34" fill="none" xmlns="http://www.w3.org/2000/svg">
<ellipse cx="16.9873" cy="17" rx="16.9873" ry="17" fill="#E1AA78"/>
<path d="M30.1738 25.2754C29.3444 25.6126 28.5879 25.8405 27.9043 25.959C27.2207 26.0775 26.6055 26.1367 26.0586 26.1367C25.6211 26.1367 25.2428 26.1094 24.9238 26.0547C24.6048 26.0091 24.3314 25.9499 24.1035 25.877C23.8392 25.7949 23.6113 25.7038 23.4199 25.6035C23.0189 25.3757 22.668 25.0794 22.3672 24.7148C22.0664 24.3503 21.793 23.9583 21.5469 23.5391C21.3099 23.1198 21.0957 22.6868 20.9043 22.2402C20.7129 21.7936 20.526 21.3743 20.3438 20.9824L20.002 20.2578C19.0814 20.5221 18.2201 20.8275 17.418 21.1738C16.625 21.5111 15.9186 21.8483 15.2988 22.1855C14.679 22.5137 14.1549 22.819 13.7266 23.1016C13.3073 23.375 13.0111 23.5755 12.8379 23.7031C12.5007 24.0768 12.1224 24.4095 11.7031 24.7012C11.2839 24.9928 10.8145 25.2435 10.2949 25.4531C9.77539 25.6536 9.19661 25.8086 8.55859 25.918C7.92057 26.0273 7.21875 26.082 6.45312 26.082L6.31641 25.4941C7.20052 25.3483 7.96159 25.0658 8.59961 24.6465C9.24674 24.2272 9.80273 23.7122 10.2676 23.1016C10.7324 22.4818 11.1289 21.7891 11.457 21.0234C11.7852 20.2487 12.0768 19.4329 12.332 18.5762C12.4779 18.084 12.6693 17.5645 12.9062 17.0176C13.1523 16.4707 13.444 15.9421 13.7812 15.4316C14.1276 14.9121 14.5195 14.429 14.957 13.9824C15.4036 13.5267 15.9095 13.1439 16.4746 12.834C16.3197 12.5423 16.1647 12.2461 16.0098 11.9453C15.8639 11.6354 15.7227 11.3255 15.5859 11.0156C15.3945 10.651 15.2031 10.25 15.0117 9.8125C14.8203 9.36589 14.5924 8.95573 14.3281 8.58203C14.0729 8.19922 13.7676 7.88021 13.4121 7.625C13.0658 7.36979 12.6328 7.24219 12.1133 7.24219C11.7487 7.24219 11.3887 7.2832 11.0332 7.36523C10.6868 7.44727 10.3542 7.54753 10.0352 7.66602L9.84375 7.10547C10.6367 6.84115 11.4388 6.61784 12.25 6.43555C13.0703 6.24414 13.8815 6.14844 14.6836 6.14844C15.0664 6.14844 15.4447 6.17578 15.8184 6.23047C16.1921 6.27604 16.5521 6.36263 16.8984 6.49023C17.1992 6.59961 17.4909 6.7819 17.7734 7.03711C18.056 7.2832 18.3249 7.57943 18.5801 7.92578C18.8353 8.26302 19.0723 8.6276 19.291 9.01953C19.5189 9.41146 19.7285 9.80339 19.9199 10.1953C20.1204 10.5872 20.2982 10.9609 20.4531 11.3164C20.6172 11.6628 20.7585 11.9635 20.877 12.2188C21.679 13.9414 22.4766 15.6686 23.2695 17.4004C24.0625 19.123 24.9147 20.8229 25.8262 22.5C25.9902 22.8008 26.1634 23.097 26.3457 23.3887C26.5371 23.6803 26.7467 23.9401 26.9746 24.168C27.2116 24.3958 27.4714 24.5781 27.7539 24.7148C28.0365 24.8516 28.3555 24.9154 28.7109 24.9062C28.8385 24.9062 29.0117 24.8926 29.2305 24.8652C29.4583 24.8379 29.7044 24.7695 29.9688 24.6602L30.1738 25.2754ZM17.2402 14.4062C17.0033 14.7891 16.7845 15.1855 16.584 15.5957C16.3926 16.0059 16.2148 16.4251 16.0508 16.8535C15.8867 17.2728 15.7363 17.6921 15.5996 18.1113C15.4629 18.5306 15.3262 18.9316 15.1895 19.3145C15.0527 19.7337 14.9023 20.1439 14.7383 20.5449C14.5833 20.9368 14.4056 21.3197 14.2051 21.6934C14.8887 21.2923 15.6908 20.873 16.6113 20.4355C17.5319 19.998 18.5163 19.6243 19.5645 19.3145L17.2402 14.4062Z" fill="black"/>
</svg>
