<svg width="134" height="45" viewBox="0 0 134 45" fill="none" xmlns="http://www.w3.org/2000/svg">
<ellipse cx="23.5" cy="22.5" rx="23.5" ry="22.5" fill="#E1AA78"/>
<path d="M36.2778 31.8574C35.3892 32.2187 34.5786 32.4629 33.8462 32.5898C33.1138 32.7168 32.4546 32.7802 31.8687 32.7802C31.3999 32.7802 30.9946 32.7509 30.6528 32.6924C30.311 32.6435 30.0181 32.58 29.7739 32.5019C29.4907 32.414 29.2466 32.3164 29.0415 32.209C28.6118 31.9648 28.2358 31.6474 27.9136 31.2568C27.5913 30.8662 27.2983 30.4463 27.0347 29.997C26.7808 29.5478 26.5513 29.084 26.3462 28.6054C26.1411 28.1269 25.9409 27.6777 25.7456 27.2578L25.3794 26.4814C24.3931 26.7646 23.4702 27.0918 22.6108 27.4629C21.7612 27.8242 21.0044 28.1855 20.3403 28.5468C19.6763 28.8984 19.1147 29.2256 18.6558 29.5283C18.2065 29.8213 17.8892 30.0361 17.7036 30.1728C17.3423 30.5732 16.937 30.9297 16.4878 31.2422C16.0386 31.5547 15.5356 31.8232 14.979 32.0478C14.4224 32.2627 13.8022 32.4287 13.1187 32.5459C12.4351 32.6631 11.6831 32.7216 10.8628 32.7216L10.7163 32.0918C11.6636 31.9355 12.479 31.6328 13.1626 31.1836C13.856 30.7343 14.4517 30.1826 14.9497 29.5283C15.4478 28.8642 15.8726 28.122 16.2241 27.3017C16.5757 26.4716 16.8882 25.5976 17.1616 24.6797C17.3179 24.1523 17.5229 23.5957 17.7769 23.0097C18.0405 22.4238 18.353 21.8574 18.7144 21.3105C19.0854 20.7539 19.5054 20.2363 19.9741 19.7578C20.4526 19.2695 20.9946 18.8593 21.6001 18.5273C21.4341 18.2148 21.2681 17.8974 21.1021 17.5752C20.9458 17.2431 20.7944 16.9111 20.6479 16.5791C20.4429 16.1884 20.2378 15.7588 20.0327 15.29C19.8276 14.8115 19.5835 14.372 19.3003 13.9716C19.0269 13.5615 18.6997 13.2197 18.3188 12.9463C17.9478 12.6728 17.4839 12.5361 16.9272 12.5361C16.5366 12.5361 16.1509 12.58 15.77 12.6679C15.3989 12.7558 15.0425 12.8633 14.7007 12.9902L14.4956 12.3896C15.3452 12.1064 16.2046 11.8672 17.0737 11.6718C17.9526 11.4668 18.8218 11.3642 19.6812 11.3642C20.0913 11.3642 20.4966 11.3935 20.897 11.4521C21.2974 11.5009 21.6831 11.5937 22.0542 11.7304C22.3765 11.8476 22.689 12.0429 22.9917 12.3164C23.2944 12.58 23.5825 12.8974 23.856 13.2685C24.1294 13.6299 24.3833 14.0205 24.6177 14.4404C24.8618 14.8603 25.0864 15.2802 25.2915 15.7002C25.5063 16.1201 25.6968 16.5205 25.8628 16.9013C26.0386 17.2724 26.1899 17.5947 26.3169 17.8681C27.1763 19.7138 28.0308 21.5644 28.8804 23.4199C29.73 25.2656 30.6431 27.0869 31.6196 28.8838C31.7954 29.206 31.981 29.5234 32.1763 29.8359C32.3813 30.1484 32.606 30.4267 32.8501 30.6709C33.104 30.915 33.3823 31.1103 33.6851 31.2568C33.9878 31.4033 34.3296 31.4716 34.7104 31.4619C34.8472 31.4619 35.0327 31.4472 35.2671 31.4179C35.5112 31.3886 35.7749 31.3154 36.0581 31.1982L36.2778 31.8574ZM22.4204 20.2119C22.1665 20.622 21.9321 21.0468 21.7173 21.4863C21.5122 21.9258 21.3218 22.375 21.146 22.834C20.9702 23.2832 20.8091 23.7324 20.6626 24.1816C20.5161 24.6308 20.3696 25.0605 20.2231 25.4707C20.0767 25.9199 19.9155 26.3593 19.7397 26.789C19.5737 27.209 19.3833 27.6191 19.1685 28.0195C19.9009 27.5898 20.7603 27.1406 21.7466 26.6718C22.7329 26.2031 23.7876 25.8027 24.9106 25.4707L22.4204 20.2119ZM57.5767 32.458C56.688 32.8193 55.8872 33.0634 55.1743 33.1904C54.4614 33.3174 53.8315 33.3808 53.2847 33.3808C52.6011 33.3808 51.9175 33.2002 51.2339 32.8388C50.5601 32.4775 49.9058 32.0185 49.271 31.4619C48.646 30.8955 48.0552 30.2705 47.4985 29.5869C46.9419 28.9033 46.439 28.2343 45.9897 27.58C45.5503 26.9258 45.1743 26.33 44.8618 25.7929C44.5591 25.2558 44.3442 24.8554 44.2173 24.5918C45.4575 24.3867 46.5659 24.0156 47.5425 23.4785C47.9624 23.2441 48.3726 22.9658 48.7729 22.6435C49.1733 22.3213 49.5298 21.9404 49.8423 21.5009C50.1548 21.0615 50.4038 20.5586 50.5894 19.9922C50.7847 19.4258 50.8823 18.7812 50.8823 18.0586C50.8823 17.4043 50.7993 16.8134 50.6333 16.2861C50.4673 15.749 50.2476 15.2754 49.9741 14.8652C49.7007 14.4453 49.3833 14.0888 49.022 13.7959C48.6606 13.4931 48.2847 13.2441 47.894 13.0488C47.5034 12.8535 47.1079 12.7119 46.7075 12.624C46.3169 12.5263 45.9507 12.4775 45.6089 12.4775C45.0913 12.4775 44.6616 12.5312 44.3198 12.6386C43.9878 12.7461 43.7241 12.8925 43.5288 13.0781C43.3335 13.2539 43.1968 13.4638 43.1187 13.708C43.0503 13.9424 43.0161 14.1914 43.0161 14.455V30.0556C43.0161 30.2509 43.0454 30.4658 43.104 30.7002C43.1724 30.9345 43.2944 31.1543 43.4702 31.3593C43.6558 31.5644 43.9194 31.7402 44.2612 31.8867C44.603 32.0234 45.0522 32.0918 45.6089 32.0918V32.6338H35.7944V32.0918C36.312 32.0918 36.7368 32.0429 37.0688 31.9453C37.4009 31.8379 37.6646 31.6963 37.8599 31.5205C38.0552 31.3349 38.187 31.125 38.2554 30.8906C38.3335 30.6562 38.3726 30.4072 38.3726 30.1435V14.0888C38.3726 13.8935 38.3335 13.6836 38.2554 13.459C38.187 13.2343 38.0552 13.0293 37.8599 12.8437C37.6743 12.6484 37.4155 12.4873 37.0835 12.3603C36.7515 12.2334 36.3218 12.1699 35.7944 12.1699V11.6279H45.6089C46.9956 11.6279 48.3042 11.75 49.5347 11.9941C50.7651 12.2383 51.8394 12.624 52.7573 13.1513C53.6851 13.6689 54.4175 14.3379 54.9546 15.1582C55.5015 15.9687 55.7749 16.9453 55.7749 18.0879C55.7749 19.0547 55.5747 19.8994 55.1743 20.622C54.7837 21.3447 54.2612 21.9648 53.6069 22.4824C52.9624 23 52.2251 23.4297 51.395 23.7715C50.5747 24.1035 49.7349 24.3672 48.8755 24.5625C49.2075 25.1679 49.5737 25.7734 49.9741 26.3789C50.3745 26.9843 50.7944 27.5654 51.2339 28.122C51.6733 28.6787 52.1128 29.1963 52.5522 29.6748C53.0015 30.1533 53.436 30.5732 53.856 30.9345C54.2759 31.2861 54.6665 31.5644 55.0278 31.7695C55.3989 31.9648 55.7261 32.0625 56.0093 32.0625C56.146 32.0625 56.3315 32.0478 56.5659 32.0185C56.8101 31.9892 57.0737 31.916 57.3569 31.7988L57.5767 32.458ZM77.6597 16.3154C77.3765 15.7002 77.0054 15.1533 76.5464 14.6748C76.0972 14.1963 75.5894 13.791 75.0229 13.459C74.4663 13.1269 73.8755 12.8779 73.2505 12.7119C72.6255 12.5361 72.0054 12.4482 71.3901 12.4482C70.7163 12.4482 70.0815 12.5703 69.4858 12.8144C68.8901 13.0488 68.3335 13.3759 67.8159 13.7959C67.3081 14.206 66.8442 14.6992 66.4243 15.2754C66.0044 15.8418 65.6333 16.457 65.311 17.1211C64.9985 17.7754 64.7397 18.4638 64.5347 19.1865C64.3296 19.9091 64.1831 20.6318 64.0952 21.3545H76.5757C76.3706 21.7646 76.2144 22.1992 76.1069 22.6582C75.9995 23.1074 75.9214 23.5273 75.8726 23.9179C75.814 24.3769 75.7798 24.8213 75.77 25.2509L75.2866 25.3388C75.1597 24.7138 75.0034 24.1963 74.8179 23.7861C74.6323 23.3759 74.354 23.0537 73.9829 22.8193C73.6118 22.5849 73.1138 22.4238 72.4888 22.3359C71.8735 22.2383 71.0679 22.1894 70.0718 22.1894H64.0073V22.8193C64.0073 23.6103 64.1001 24.3867 64.2856 25.1484C64.4712 25.9101 64.7349 26.6377 65.0767 27.331C65.4185 28.0146 65.8384 28.6445 66.3364 29.2207C66.8345 29.7968 67.3911 30.2998 68.0063 30.7295C68.6216 31.1494 69.2954 31.4765 70.0278 31.7109C70.7603 31.9453 71.5366 32.0625 72.3569 32.0625C73.0991 32.0625 73.7534 31.9941 74.3198 31.8574C74.8862 31.7109 75.3745 31.5302 75.7847 31.3154C76.2046 31.1006 76.5562 30.8662 76.8394 30.6123C77.1226 30.3486 77.3569 30.0996 77.5425 29.8652C77.728 29.6308 77.8647 29.4258 77.9526 29.25C78.0503 29.0644 78.1235 28.9424 78.1724 28.8838L77.938 30.9492C77.7134 31.2617 77.3862 31.5644 76.9565 31.8574C76.5269 32.1406 76.0142 32.3994 75.4185 32.6338C74.8325 32.8584 74.1733 33.039 73.4409 33.1758C72.7085 33.3125 71.9175 33.3808 71.0679 33.3808C69.437 33.3808 67.894 33.1416 66.439 32.6631C64.9937 32.1845 63.7192 31.5058 62.6157 30.6269C61.522 29.748 60.6479 28.6884 59.9937 27.4482C59.3491 26.1982 59.0171 24.8066 58.9976 23.2734C59.0269 21.6914 59.3003 20.2705 59.8179 19.0107C60.3452 17.7412 61.0435 16.6377 61.9126 15.7002C62.7915 14.7529 63.812 13.9716 64.9741 13.3564C66.1362 12.7314 67.3765 12.2675 68.6948 11.9648C69.3882 11.7988 70.1841 11.6914 71.0825 11.6425C71.981 11.5937 72.8843 11.5693 73.7925 11.5693C74.6714 11.5693 75.4966 11.5791 76.2681 11.5986C77.0493 11.6181 77.7036 11.6279 78.231 11.6279C78.1235 12.0869 78.0454 12.497 77.9966 12.8584C77.9575 13.2099 77.938 13.542 77.938 13.8545C77.938 14.2939 77.9722 14.7041 78.0405 15.0849C78.1089 15.456 78.2017 15.8564 78.3188 16.2861L77.6597 16.3154ZM78.6851 11.6279H88.8071V12.1699C88.436 12.1699 88.1333 12.1943 87.8989 12.2431C87.6646 12.292 87.479 12.3652 87.3423 12.4629C87.2056 12.5605 87.1079 12.6777 87.0493 12.8144C87.0005 12.9414 86.9761 13.0879 86.9761 13.2539C86.9761 13.3906 86.981 13.5371 86.9907 13.6933C87.0103 13.8398 87.0444 14.0009 87.0933 14.1767C87.7964 17.0185 88.6558 19.8066 89.6714 22.541C90.6968 25.2656 91.8687 27.9707 93.187 30.6562C93.8413 29.3769 94.4858 28.0586 95.1206 26.7011C95.7554 25.334 96.3511 23.9472 96.9077 22.541C97.4644 21.1347 97.9624 19.7138 98.4019 18.2783C98.8413 16.833 99.2026 15.3877 99.4858 13.9424V13.7959C99.4858 13.5615 99.4419 13.3466 99.354 13.1513C99.2661 12.9463 99.1196 12.7754 98.9146 12.6386C98.7192 12.4922 98.4604 12.3799 98.1382 12.3017C97.8257 12.2138 97.4351 12.1699 96.9663 12.1699V11.6279H103.441C103.099 12.7021 102.704 13.8252 102.254 14.997C101.805 16.1689 101.317 17.3554 100.79 18.5566C100.272 19.748 99.73 20.9443 99.1636 22.1455C98.5972 23.3466 98.0259 24.5136 97.4497 25.6465C96.8833 26.7695 96.3267 27.8486 95.7798 28.8838C95.2329 29.9189 94.7153 30.8711 94.2271 31.7402L89.0415 32.6338C87.5571 29.5966 86.2437 26.54 85.1011 23.4638C83.9683 20.3877 82.9917 17.2724 82.1714 14.1181C82.0835 13.9131 81.9517 13.6982 81.7759 13.4736C81.6099 13.249 81.3853 13.039 81.1021 12.8437C80.8188 12.6484 80.4771 12.4873 80.0767 12.3603C79.686 12.2334 79.2222 12.1699 78.6851 12.1699V11.6279ZM128.036 31.8574C127.147 32.2187 126.336 32.4629 125.604 32.5898C124.872 32.7168 124.212 32.7802 123.626 32.7802C123.158 32.7802 122.752 32.7509 122.411 32.6924C122.069 32.6435 121.776 32.58 121.532 32.5019C121.249 32.414 121.004 32.3164 120.799 32.209C120.37 31.9648 119.994 31.6474 119.671 31.2568C119.349 30.8662 119.056 30.4463 118.792 29.997C118.539 29.5478 118.309 29.084 118.104 28.6054C117.899 28.1269 117.699 27.6777 117.503 27.2578L117.137 26.4814C116.151 26.7646 115.228 27.0918 114.369 27.4629C113.519 27.8242 112.762 28.1855 112.098 28.5468C111.434 28.8984 110.873 29.2256 110.414 29.5283C109.964 29.8213 109.647 30.0361 109.461 30.1728C109.1 30.5732 108.695 30.9297 108.246 31.2422C107.796 31.5547 107.293 31.8232 106.737 32.0478C106.18 32.2627 105.56 32.4287 104.876 32.5459C104.193 32.6631 103.441 32.7216 102.621 32.7216L102.474 32.0918C103.421 31.9355 104.237 31.6328 104.92 31.1836C105.614 30.7343 106.209 30.1826 106.708 29.5283C107.206 28.8642 107.63 28.122 107.982 27.3017C108.333 26.4716 108.646 25.5976 108.919 24.6797C109.076 24.1523 109.281 23.5957 109.535 23.0097C109.798 22.4238 110.111 21.8574 110.472 21.3105C110.843 20.7539 111.263 20.2363 111.732 19.7578C112.21 19.2695 112.752 18.8593 113.358 18.5273C113.192 18.2148 113.026 17.8974 112.86 17.5752C112.704 17.2431 112.552 16.9111 112.406 16.5791C112.201 16.1884 111.996 15.7588 111.791 15.29C111.585 14.8115 111.341 14.372 111.058 13.9716C110.785 13.5615 110.458 13.2197 110.077 12.9463C109.706 12.6728 109.242 12.5361 108.685 12.5361C108.294 12.5361 107.909 12.58 107.528 12.6679C107.157 12.7558 106.8 12.8633 106.458 12.9902L106.253 12.3896C107.103 12.1064 107.962 11.8672 108.832 11.6718C109.71 11.4668 110.58 11.3642 111.439 11.3642C111.849 11.3642 112.254 11.3935 112.655 11.4521C113.055 11.5009 113.441 11.5937 113.812 11.7304C114.134 11.8476 114.447 12.0429 114.75 12.3164C115.052 12.58 115.34 12.8974 115.614 13.2685C115.887 13.6299 116.141 14.0205 116.375 14.4404C116.62 14.8603 116.844 15.2802 117.049 15.7002C117.264 16.1201 117.455 16.5205 117.621 16.9013C117.796 17.2724 117.948 17.5947 118.075 17.8681C118.934 19.7138 119.789 21.5644 120.638 23.4199C121.488 25.2656 122.401 27.0869 123.377 28.8838C123.553 29.206 123.739 29.5234 123.934 29.8359C124.139 30.1484 124.364 30.4267 124.608 30.6709C124.862 30.915 125.14 31.1103 125.443 31.2568C125.746 31.4033 126.087 31.4716 126.468 31.4619C126.605 31.4619 126.791 31.4472 127.025 31.4179C127.269 31.3886 127.533 31.3154 127.816 31.1982L128.036 31.8574ZM114.178 20.2119C113.924 20.622 113.69 21.0468 113.475 21.4863C113.27 21.9258 113.08 22.375 112.904 22.834C112.728 23.2832 112.567 23.7324 112.42 24.1816C112.274 24.6308 112.127 25.0605 111.981 25.4707C111.834 25.9199 111.673 26.3593 111.498 26.789C111.332 27.209 111.141 27.6191 110.926 28.0195C111.659 27.5898 112.518 27.1406 113.504 26.6718C114.491 26.2031 115.545 25.8027 116.668 25.4707L114.178 20.2119Z" fill="black"/>
</svg>
